<svg xmlns="http://www.w3.org/2000/svg" id="Layer_1" enable-background="new 0 0 64 64" viewBox="0 0 64 64"><polygon fill="#fede4c" points="20.5 17.834 6.5 25.917 6.5 42.083 20.5 50.166 34.5 42.083 34.5 25.917"/><polygon fill="#fee473" points="20.5 50.166 34.5 42.083 34.482 25.917 20.482 34"/><polygon fill="#feea98" points="20.5 33.951 34.458 25.893 20.5 17.834 6.542 25.893"/><circle cx="32" cy="46.461" r="9.5" fill="#f3745c"/><path fill="#8ec7ec" d="M43.5,8.039l-9,22.981v6.292c4.031,1.098,7,4.769,7,9.149c0,1.351-0.286,2.633-0.794,3.796L43.5,51.87   l14-8.083L43.5,8.039z"/><g><path fill="#3c9bd6" d="M43.5,8.039l-9,22.981v6.292c4.031,1.098,7,4.769,7,9.149c0,1.351-0.286,2.633-0.794,3.796L43.5,51.87V8.039z"/></g><path d="M58.122,44.006L43.5,6.668L35,28.372v-2.539l-14.5-8.371L6,25.833v16.244l14.5,8.37l1.926-1.111  c1.239,4.116,5.06,7.125,9.574,7.125c3.895,0,7.269-2.244,8.919-5.503l2.581,1.489L58.122,44.006z M44,51.004V10.687L56.878,43.57  L44,51.004z M33.356,26.039L20.5,33.462L7.644,26.039L20.5,18.616L33.356,26.039z M7,26.822l13,7.506v14.677L7,41.499V26.822z   M21,49.004V34.328l13-7.506v9.841c-0.646-0.132-1.315-0.202-2-0.202c-5.514,0-10,4.486-10,10c0,0.31,0.016,0.623,0.048,0.94  c0.029,0.312,0.075,0.619,0.133,0.923L21,49.004z M32,55.461c-4.279,0-7.862-3.003-8.771-7.011C23.078,47.776,23,47.108,23,46.461  c0-4.963,4.037-9,9-9c0.371,0,0.748,0.028,1.126,0.078c0.044,0.006,0.087,0.014,0.131,0.02c0.33,0.048,0.662,0.118,0.993,0.204  l0.117,0.032c1.696,0.462,3.168,1.396,4.293,2.635c0.015,0.017,0.03,0.033,0.045,0.05c0.147,0.164,0.287,0.333,0.422,0.508  c0.018,0.023,0.035,0.047,0.053,0.071c0.53,0.701,0.954,1.481,1.261,2.312c0.03,0.083,0.063,0.164,0.091,0.248  c0.049,0.145,0.091,0.293,0.132,0.441c0.034,0.123,0.067,0.246,0.096,0.371c0.03,0.129,0.058,0.26,0.083,0.391  c0.03,0.161,0.054,0.325,0.075,0.489c0.014,0.105,0.03,0.209,0.04,0.314C40.983,45.9,41,46.178,41,46.461  c0,0.31-0.016,0.618-0.047,0.923c-0.003,0.032-0.011,0.062-0.014,0.094c-0.031,0.273-0.071,0.545-0.127,0.814  c-0.005,0.026-0.014,0.052-0.02,0.078c-0.059,0.272-0.128,0.542-0.213,0.809c-0.01,0.033-0.025,0.065-0.036,0.098  c-0.084,0.253-0.177,0.505-0.284,0.752C38.875,53.221,35.695,55.461,32,55.461z M41.431,49.754c0.054-0.154,0.108-0.308,0.155-0.465  c0.047-0.16,0.086-0.322,0.125-0.484c0.034-0.143,0.072-0.284,0.1-0.429c0.039-0.198,0.065-0.399,0.092-0.6  c0.015-0.115,0.036-0.227,0.047-0.343C41.982,47.111,42,46.787,42,46.461c0-0.311-0.018-0.618-0.047-0.922  c-0.01-0.112-0.027-0.222-0.041-0.333c-0.024-0.187-0.051-0.372-0.085-0.556c-0.025-0.137-0.053-0.272-0.084-0.406  c-0.034-0.147-0.073-0.293-0.113-0.438c-0.042-0.151-0.082-0.302-0.131-0.45c-0.032-0.097-0.07-0.191-0.105-0.287  c-0.138-0.38-0.295-0.748-0.476-1.105c-0.017-0.033-0.031-0.067-0.048-0.1c-0.098-0.188-0.205-0.37-0.314-0.55  c-0.036-0.059-0.071-0.119-0.108-0.178c-0.113-0.179-0.231-0.353-0.355-0.523c-0.035-0.048-0.071-0.095-0.107-0.143  c-1.242-1.651-2.974-2.912-4.986-3.546v-5.807l8-20.428v40.317l-1.665-0.961C41.372,49.948,41.398,49.85,41.431,49.754z"/></svg>