<?xml version="1.0" encoding="UTF-8"?><!DOCTYPE svg PUBLIC "-//W3C//DTD SVG 1.0//EN" "http://www.w3.org/TR/2001/REC-SVG-20010904/DTD/svg10.dtd"><svg xmlns="http://www.w3.org/2000/svg" xmlns:xlink="http://www.w3.org/1999/xlink" height="110px" version="1.0" viewBox="0 0 110 110" width="110px" xml:space="preserve"><g id="Multicolor_1_"><path fill="#FCF6C2" d="M59 34L27 46v25l24 12 32-12V46z"/><path fill="#F3B607" d="M83 71L51 83V58l32-12z"/><path fill="#FACB1B" d="M27 71l24 12V58L27 46z"/><path d="M59 48v4c0 1.1-2.69 2-6 2s-6-.9-6-2v-4c0 1.1 2.69 2 6 2s6-.9 6-2z" fill="#F3B607"/><path d="M53 46c-3.31 0-6 .9-6 2s2.69 2 6 2 6-.9 6-2-2.69-2-6-2z" fill="#FCF6C2"/><path d="M47 42v4c0 1.1-2.69 2-6 2s-6-.9-6-2v-4c0 1.1 2.69 2 6 2s6-.9 6-2z" fill="#F3B607"/><path d="M41 40c-3.31 0-6 .9-6 2s2.69 2 6 2 6-.9 6-2-2.69-2-6-2z" fill="#FCF6C2"/><path d="M63 36v4c0 1.1-2.69 2-6 2s-6-.9-6-2v-4c0 1.1 2.69 2 6 2s6-.9 6-2z" fill="#F3B607"/><path d="M57 34c-3.31 0-6 .9-6 2s2.69 2 6 2 6-.9 6-2-2.69-2-6-2z" fill="#FCF6C2"/><path d="M75 42v4c0 1.1-2.69 2-6 2s-6-.9-6-2v-4c0 1.1 2.69 2 6 2s6-.9 6-2z" fill="#F3B607"/><path d="M69 40c-3.31 0-6 .9-6 2s2.69 2 6 2 6-.9 6-2-2.69-2-6-2z" fill="#FCF6C2"/></g><metadata><rdf:RDF xmlns:rdf="http://www.w3.org/1999/02/22-rdf-syntax-ns#" xmlns:rdfs="http://www.w3.org/2000/01/rdf-schema#" xmlns:dc="http://purl.org/dc/elements/1.1/"><rdf:Description about="https://iconscout.com/legal#licenses" dc:title="programming" dc:description="programming" dc:publisher="Iconscout" dc:date="2017-09-19" dc:format="image/svg+xml" dc:language="en"><dc:creator><rdf:Bag><rdf:li>Vincent Le Moign</rdf:li></rdf:Bag></dc:creator></rdf:Description></rdf:RDF></metadata></svg>