<svg xmlns="http://www.w3.org/2000/svg" data-name="Layer 1" viewBox="0 0 512 512"><g data-name="&lt;Group&gt;"><path fill="#00efd1" d="M399.36,155.28V356.72a42.639,42.639,0,0,1-42.64,42.64H155.28a42.639,42.639,0,0,1-42.64-42.64V155.28a42.639,42.639,0,0,1,42.64-42.64H356.72A42.639,42.639,0,0,1,399.36,155.28Zm-59,185.08V171.64H171.64V340.36Z"/><rect width="168.72" height="168.72" x="171.64" y="171.64" fill="#00acea"/><path fill="#083863" d="M356.72 102.64H155.28a52.7 52.7 0 0 0-52.64 52.64V356.72a52.7 52.7 0 0 0 52.64 52.64H356.72a52.7 52.7 0 0 0 52.64-52.64V155.28A52.7 52.7 0 0 0 356.72 102.64zm32.64 254.08a32.677 32.677 0 0 1-32.64 32.64H155.28a32.677 32.677 0 0 1-32.64-32.64V155.28a32.677 32.677 0 0 1 32.64-32.64H356.72a32.677 32.677 0 0 1 32.64 32.64zM177.78 71.68a10 10 0 0 0 10-10V32.98a10 10 0 1 0-20 0v28.7A10 10 0 0 0 177.78 71.68zM334.22 71.68a10 10 0 0 0 10-10V32.98a10 10 0 0 0-20 0v28.7A10 10 0 0 0 334.22 71.68zM177.78 440.32a10 10 0 0 0-10 10v28.7a10 10 0 0 0 20 0v-28.7A10 10 0 0 0 177.78 440.32zM334.22 440.32a10 10 0 0 0-10 10v28.7a10 10 0 0 0 20 0v-28.7A10 10 0 0 0 334.22 440.32zM479.02 167.78h-28.7a10 10 0 0 0 0 20h28.7a10 10 0 0 0 0-20zM479.02 324.22h-28.7a10 10 0 1 0 0 20h28.7a10 10 0 0 0 0-20zM61.68 167.78H32.98a10 10 0 1 0 0 20h28.7a10 10 0 1 0 0-20zM61.68 324.22H32.98a10 10 0 1 0 0 20h28.7a10 10 0 1 0 0-20z"/><path fill="#083863" d="M340.36,161.64H171.64a10,10,0,0,0-10,10V340.36a10,10,0,0,0,10,10H340.36a10,10,0,0,0,10-10V171.64A10,10,0,0,0,340.36,161.64Zm-10,168.72H181.64V181.64H330.36Z"/></g></svg>